<svg xmlns="http://www.w3.org/2000/svg" width="512" height="512" viewBox="0 0 512 512">
  <defs>
    <linearGradient id="bg" x1="0" y1="0" x2="1" y2="1">
      <stop offset="0%" stop-color="#1b3258" />
      <stop offset="100%" stop-color="#0b1526" />
    </linearGradient>
    <linearGradient id="blade" x1="0" y1="0" x2="1" y2="1">
      <stop offset="0%" stop-color="#ff6a6d" />
      <stop offset="100%" stop-color="#d62636" />
    </linearGradient>
  </defs>
  <rect x="20" y="20" width="472" height="472" rx="96" fill="url(#bg)" />
  <circle cx="256" cy="256" r="148" fill="#101b2f" stroke="#f6b84d" stroke-width="10" />
  <path d="M154 120l26 26-56 56c-7 7-7 20 0 27l14 14c7 7 20 7 27 0l56-56 26 26-22 22 36 36 31-31-36-36 22-22 26 26 56-56c7-7 20-7 27 0l14 14c7 7 7 20 0 27l-56 56 26 26-52 52-52-52-52 52-52-52z" fill="url(#blade)" />
  <circle cx="256" cy="256" r="26" fill="#f6b84d" />
</svg>
